# xmcd
#
# Track frame offsets:
#	150
#	13685
#	37460
#	55385
#	72962
#	94250
#	107212
#	122472
#	137974
#	150763
#
# Disc length: 2545 seconds
#
# Revision: 1
# Processed by: cddbd v1.5.2PL0 Copyright (c) Steve Scherf et al.
# Submitted via: audiograbber 1.83.01
#
DISCID=8909ef0a
DTITLE=Emmanuel DJOB - Remember
DYEAR=2010
DGENRE=Soul
TTITLE0=No one, nothing
TTITLE1=My last time
TTITLE2=I'm the same
TTITLE3=Say a prayer
TTITLE4=Remember
TTITLE5=You try
TTITLE6=Gimme some more
TTITLE7=Sons of Lilace
TTITLE8=We want to thank you
TTITLE9=Joy and happiness
EXTD=
EXTT0=
EXTT1=
EXTT2=
EXTT3=
EXTT4=
EXTT5=
EXTT6=
EXTT7=
EXTT8=
EXTT9=
PLAYORDER=
